<svg width="302" height="87" viewBox="0 0 302 87" fill="none" xmlns="http://www.w3.org/2000/svg">
<g filter="url(#filter0_d_26_735)">
<rect x="4" width="294" height="79" rx="10" fill="white"/>
<path d="M30.5601 65L36.0739 58.1803C36.9372 57.1125 37.4081 55.781 37.4081 54.4079V32.4762C37.4081 31.0212 37.9368 29.6158 38.8958 28.5216L46.4676 19.882C49.019 16.9708 53.6186 17.2017 55.8656 20.3537L64.4399 32.3816" stroke="#FFC265" stroke-width="5" stroke-linecap="round"/>
<path d="M30.5601 65L30.5601 32.2625C30.5601 30.8623 31.0498 29.5061 31.9444 28.429L38.8689 20.0919C41.4089 17.0336 46.1671 17.2464 48.424 20.5193L54.1986 28.8937C55.102 30.2038 56.4889 31.1014 58.0542 31.3889L64.4399 32.5618" stroke="#1DA599" stroke-width="5" stroke-linecap="round"/>
<path d="M63.7199 58L66.2799 42.8C66.5359 41.2853 66.9199 40.016 67.4319 38.992C67.9653 37.968 68.6479 37.136 69.4799 36.496C70.3333 35.856 71.3466 35.3973 72.5199 35.12C73.7146 34.8427 75.1013 34.704 76.6799 34.704C77.5333 34.704 78.4186 34.7573 79.3359 34.864C80.2746 34.9493 81.1706 35.088 82.0239 35.28L82.0879 35.664C82.0026 36.0693 81.9386 36.592 81.8959 37.232C81.8746 37.872 81.8639 38.5227 81.8639 39.184C81.8639 39.824 81.8639 40.3573 81.8639 40.784V58H77.2879V40.4C77.2879 39.8453 77.2986 39.344 77.3199 38.896C77.3626 38.4267 77.4266 38 77.5119 37.616L78.1519 38.8C77.8959 38.7147 77.5653 38.6613 77.1599 38.64C76.7759 38.5973 76.3919 38.576 76.0079 38.576C74.8346 38.576 73.8959 38.736 73.1919 39.056C72.5093 39.3547 71.9866 39.824 71.6239 40.464C71.2613 41.104 70.9946 41.9147 70.8239 42.896L68.3279 58H63.7199ZM67.4319 51.632V47.856H79.3359V51.632H67.4319ZM87.3162 58V39.088C87.3162 38.6613 87.3055 38.1173 87.2842 37.456C87.2842 36.7733 87.2629 36.112 87.2202 35.472C87.1775 34.832 87.1029 34.32 86.9962 33.936L87.0922 33.68H91.7962V58H87.3162ZM105.066 58V34.96H108.746L120.938 47.536V53.68L108.33 40.656L109.61 40.144V58H105.066ZM119.242 58V34.96H123.786V58H119.242ZM136.038 58.384C133.372 58.384 131.356 57.9467 129.99 57.072C128.646 56.1973 127.974 54.7787 127.974 52.816C127.974 51.5573 128.284 50.5227 128.902 49.712C129.542 48.9013 130.428 48.304 131.558 47.92C132.71 47.5147 134.033 47.312 135.526 47.312C136.444 47.312 137.244 47.3867 137.926 47.536C138.609 47.664 139.228 47.8027 139.782 47.952V50.832C139.356 50.6827 138.812 50.5547 138.15 50.448C137.489 50.32 136.849 50.256 136.23 50.256C134.844 50.256 133.809 50.448 133.126 50.832C132.465 51.216 132.134 51.8667 132.134 52.784C132.134 53.6587 132.465 54.288 133.126 54.672C133.788 55.056 134.737 55.248 135.974 55.248C136.721 55.248 137.436 55.184 138.118 55.056C138.822 54.9067 139.441 54.6827 139.974 54.384L139.334 55.632C139.249 55.376 139.174 55.12 139.11 54.864C139.046 54.608 138.993 54.3413 138.95 54.064C138.929 53.7867 138.908 53.4773 138.886 53.136C138.886 52.7733 138.886 52.336 138.886 51.824V47.44C138.886 46.352 138.716 45.5307 138.374 44.976C138.033 44.4213 137.532 44.0587 136.87 43.888C136.209 43.696 135.388 43.6 134.406 43.6C133.51 43.6 132.646 43.696 131.814 43.888C130.982 44.0587 130.31 44.2613 129.798 44.496H129.478V40.944C130.246 40.6667 131.11 40.464 132.07 40.336C133.03 40.1867 133.99 40.112 134.95 40.112C136.145 40.112 137.244 40.2187 138.246 40.432C139.27 40.6453 140.156 41.0187 140.902 41.552C141.649 42.0853 142.225 42.8427 142.63 43.824C143.057 44.784 143.27 46.032 143.27 47.568V51.6C143.27 52.048 143.27 52.6133 143.27 53.296C143.292 53.9573 143.324 54.608 143.366 55.248C143.409 55.888 143.473 56.4 143.558 56.784L143.462 57.04C142.737 57.3173 141.948 57.5627 141.094 57.776C140.262 57.968 139.409 58.1173 138.534 58.224C137.66 58.3307 136.828 58.384 136.038 58.384ZM147.291 53.584H147.547C148.315 53.904 149.211 54.1813 150.235 54.416C151.281 54.6507 152.326 54.768 153.371 54.768C153.734 54.768 154.129 54.7573 154.555 54.736C154.982 54.6933 155.377 54.6187 155.739 54.512C156.123 54.4053 156.433 54.2133 156.667 53.936C156.923 53.6587 157.051 53.2853 157.051 52.816C157.051 52.2187 156.806 51.8027 156.315 51.568C155.825 51.3333 155.067 51.1307 154.043 50.96L152.539 50.704C150.833 50.4053 149.521 49.8933 148.603 49.168C147.686 48.4213 147.227 47.3227 147.227 45.872C147.227 44.8267 147.505 43.8773 148.059 43.024C148.635 42.1707 149.521 41.4987 150.715 41.008C151.931 40.496 153.521 40.24 155.483 40.24C156.401 40.24 157.243 40.304 158.011 40.432C158.801 40.5387 159.547 40.6987 160.251 40.912V44.592H159.995C159.185 44.272 158.406 44.048 157.659 43.92C156.913 43.792 156.145 43.728 155.355 43.728C154.161 43.728 153.222 43.8773 152.539 44.176C151.878 44.4533 151.547 44.9547 151.547 45.68C151.547 46.2347 151.793 46.6293 152.283 46.864C152.795 47.0987 153.531 47.3013 154.491 47.472L155.963 47.728C156.966 47.8773 157.873 48.144 158.683 48.528C159.515 48.912 160.177 49.4453 160.667 50.128C161.158 50.7893 161.403 51.6427 161.403 52.688C161.403 54.544 160.71 55.9413 159.323 56.88C157.958 57.7973 155.889 58.256 153.115 58.256C152.091 58.256 151.067 58.1707 150.043 58C149.019 57.8293 148.102 57.616 147.291 57.36V53.584ZM165.222 58V46.832C165.222 46.4053 165.212 45.8613 165.19 45.2C165.169 44.5173 165.137 43.856 165.094 43.216C165.073 42.5547 165.009 42.032 164.902 41.648L164.998 41.392C165.596 41.1787 166.289 40.9867 167.078 40.816C167.889 40.6453 168.732 40.5173 169.606 40.432C170.502 40.3253 171.398 40.272 172.294 40.272C172.678 40.272 173.094 40.2827 173.542 40.304C173.99 40.3253 174.438 40.368 174.886 40.432V44.08H174.598C174.278 43.9947 173.916 43.9413 173.51 43.92C173.105 43.8773 172.71 43.856 172.326 43.856C171.644 43.856 170.972 43.9093 170.31 44.016C169.649 44.1227 169.084 44.2507 168.614 44.4L169.286 43.376C169.564 43.952 169.702 44.944 169.702 46.352V58H165.222Z" fill="#1DA599"/>
<path d="M198.8 39.5L200.4 30C200.56 29.0533 200.8 28.26 201.12 27.62C201.453 26.98 201.88 26.46 202.4 26.06C202.933 25.66 203.567 25.3733 204.3 25.2C205.047 25.0267 205.913 24.94 206.9 24.94C207.433 24.94 207.987 24.9733 208.56 25.04C209.147 25.0933 209.707 25.18 210.24 25.3L210.28 25.54C210.227 25.7933 210.187 26.12 210.16 26.52C210.147 26.92 210.14 27.3267 210.14 27.74C210.14 28.14 210.14 28.4733 210.14 28.74V39.5H207.28V28.5C207.28 28.1533 207.287 27.84 207.3 27.56C207.327 27.2667 207.367 27 207.42 26.76L207.82 27.5C207.66 27.4467 207.453 27.4133 207.2 27.4C206.96 27.3733 206.72 27.36 206.48 27.36C205.747 27.36 205.16 27.46 204.72 27.66C204.293 27.8467 203.967 28.14 203.74 28.54C203.513 28.94 203.347 29.4467 203.24 30.06L201.68 39.5H198.8ZM201.12 35.52V33.16H208.56V35.52H201.12ZM213.548 39.5V27.68C213.548 27.4133 213.541 27.0733 213.528 26.66C213.528 26.2333 213.514 25.82 213.488 25.42C213.461 25.02 213.414 24.7 213.348 24.46L213.408 24.3H216.348V39.5H213.548ZM233.501 39.5V25.1H236.341V39.5H233.501ZM224.641 39.5V25.1H227.481V39.5H224.641ZM226.201 33.4V30.92H234.781V33.4H226.201ZM243.999 39.74C242.332 39.74 241.072 39.4667 240.219 38.92C239.379 38.3733 238.959 37.4867 238.959 36.26C238.959 35.4733 239.152 34.8267 239.539 34.32C239.939 33.8133 240.492 33.44 241.199 33.2C241.919 32.9467 242.746 32.82 243.679 32.82C244.252 32.82 244.752 32.8667 245.179 32.96C245.606 33.04 245.992 33.1267 246.339 33.22V35.02C246.072 34.9267 245.732 34.8467 245.319 34.78C244.906 34.7 244.506 34.66 244.119 34.66C243.252 34.66 242.606 34.78 242.179 35.02C241.766 35.26 241.559 35.6667 241.559 36.24C241.559 36.7867 241.766 37.18 242.179 37.42C242.592 37.66 243.186 37.78 243.959 37.78C244.426 37.78 244.872 37.74 245.299 37.66C245.739 37.5667 246.126 37.4267 246.459 37.24L246.059 38.02C246.006 37.86 245.959 37.7 245.919 37.54C245.879 37.38 245.846 37.2133 245.819 37.04C245.806 36.8667 245.792 36.6733 245.779 36.46C245.779 36.2333 245.779 35.96 245.779 35.64V32.9C245.779 32.22 245.672 31.7067 245.459 31.36C245.246 31.0133 244.932 30.7867 244.519 30.68C244.106 30.56 243.592 30.5 242.979 30.5C242.419 30.5 241.879 30.56 241.359 30.68C240.839 30.7867 240.419 30.9133 240.099 31.06H239.899V28.84C240.379 28.6667 240.919 28.54 241.519 28.46C242.119 28.3667 242.719 28.32 243.319 28.32C244.066 28.32 244.752 28.3867 245.379 28.52C246.019 28.6533 246.572 28.8867 247.039 29.22C247.506 29.5533 247.866 30.0267 248.119 30.64C248.386 31.24 248.519 32.02 248.519 32.98V35.5C248.519 35.78 248.519 36.1333 248.519 36.56C248.532 36.9733 248.552 37.38 248.579 37.78C248.606 38.18 248.646 38.5 248.699 38.74L248.639 38.9C248.186 39.0733 247.692 39.2267 247.159 39.36C246.639 39.48 246.106 39.5733 245.559 39.64C245.012 39.7067 244.492 39.74 243.999 39.74ZM253.111 26.86C252.658 26.86 252.278 26.7267 251.971 26.46C251.678 26.18 251.531 25.7933 251.531 25.3C251.531 24.82 251.678 24.4467 251.971 24.18C252.278 23.9 252.658 23.76 253.111 23.76C253.578 23.76 253.958 23.9 254.251 24.18C254.545 24.4467 254.691 24.82 254.691 25.3C254.691 25.7933 254.545 26.18 254.251 26.46C253.958 26.7267 253.578 26.86 253.111 26.86ZM250.111 44.3C249.725 44.3 249.385 44.2733 249.091 44.22C248.798 44.18 248.545 44.1267 248.331 44.06V41.78H248.531C248.705 41.8467 248.891 41.9 249.091 41.94C249.278 41.9933 249.518 42.02 249.811 42.02C250.411 42.02 250.878 41.86 251.211 41.54C251.558 41.22 251.731 40.7333 251.731 40.08V31.96C251.731 31.6933 251.725 31.3533 251.711 30.94C251.698 30.5267 251.678 30.12 251.651 29.72C251.638 29.3067 251.598 28.98 251.531 28.74L251.591 28.58H254.531V39.92C254.531 40.8133 254.358 41.5867 254.011 42.24C253.678 42.9067 253.178 43.4133 252.511 43.76C251.858 44.12 251.058 44.3 250.111 44.3ZM259.264 26.86C258.81 26.86 258.43 26.7267 258.124 26.46C257.83 26.18 257.684 25.7933 257.684 25.3C257.684 24.82 257.83 24.4467 258.124 24.18C258.43 23.9 258.81 23.76 259.264 23.76C259.73 23.76 260.11 23.9 260.404 24.18C260.697 24.4467 260.844 24.82 260.844 25.3C260.844 25.7933 260.697 26.18 260.404 26.46C260.11 26.7267 259.73 26.86 259.264 26.86ZM256.264 44.3C255.877 44.3 255.537 44.2733 255.244 44.22C254.95 44.18 254.697 44.1267 254.484 44.06V41.78H254.684C254.857 41.8467 255.044 41.9 255.244 41.94C255.43 41.9933 255.67 42.02 255.964 42.02C256.564 42.02 257.03 41.86 257.364 41.54C257.71 41.22 257.884 40.7333 257.884 40.08V31.96C257.884 31.6933 257.877 31.3533 257.864 30.94C257.85 30.5267 257.83 30.12 257.804 29.72C257.79 29.3067 257.75 28.98 257.684 28.74L257.744 28.58H260.684V39.92C260.684 40.8133 260.51 41.5867 260.164 42.24C259.83 42.9067 259.33 43.4133 258.664 43.76C258.01 44.12 257.21 44.3 256.264 44.3ZM199.56 48.1H202.42V56.88C202.42 58.0533 202.647 58.9133 203.1 59.46C203.553 60.0067 204.287 60.28 205.3 60.28C206.3 60.28 207.033 60.0067 207.5 59.46C207.967 58.9133 208.2 58.0533 208.2 56.88V48.1H211.06V56.78C211.06 58.74 210.58 60.2267 209.62 61.24C208.66 62.24 207.22 62.74 205.3 62.74C203.327 62.74 201.873 62.24 200.94 61.24C200.02 60.2267 199.56 58.74 199.56 56.78V48.1ZM214.427 62.5V55.68C214.427 55.4133 214.42 55.0733 214.407 54.66C214.393 54.2333 214.373 53.82 214.347 53.42C214.333 53.0067 214.293 52.68 214.227 52.44L214.287 52.28C214.687 52.1067 215.16 51.9533 215.707 51.82C216.253 51.6733 216.82 51.5533 217.407 51.46C218.007 51.3667 218.58 51.32 219.127 51.32C219.753 51.32 220.36 51.3933 220.947 51.54C221.547 51.6733 222.08 51.92 222.547 52.28C223.027 52.64 223.407 53.14 223.687 53.78C223.967 54.4067 224.107 55.2133 224.107 56.2V62.5H221.307V56.32C221.307 55.5867 221.2 55.0267 220.987 54.64C220.787 54.24 220.5 53.9667 220.127 53.82C219.767 53.66 219.347 53.58 218.867 53.58C218.467 53.58 218.06 53.6267 217.647 53.72C217.247 53.8133 216.893 53.92 216.587 54.04L217.007 53.34C217.073 53.54 217.127 53.8 217.167 54.12C217.207 54.44 217.227 54.8067 217.227 55.22V62.5H214.427ZM228.007 62.5V56.32C228.007 55.5867 227.907 55.0267 227.707 54.64C227.52 54.24 227.233 53.9667 226.847 53.82C226.473 53.66 226.02 53.58 225.487 53.58C225.153 53.58 224.813 53.62 224.467 53.7C224.133 53.7667 223.807 53.86 223.487 53.98L221.967 52.18C222.567 51.9267 223.2 51.72 223.867 51.56C224.547 51.4 225.22 51.32 225.887 51.32C226.527 51.32 227.14 51.3867 227.727 51.52C228.313 51.6533 228.84 51.9 229.307 52.26C229.773 52.6067 230.14 53.1 230.407 53.74C230.673 54.3667 230.807 55.1867 230.807 56.2V62.5H228.007ZM234.134 62.5V55.52C234.134 55.2533 234.127 54.9133 234.114 54.5C234.1 54.0733 234.08 53.66 234.054 53.26C234.04 52.8467 234 52.52 233.934 52.28L233.994 52.12C234.367 51.9867 234.8 51.8667 235.294 51.76C235.8 51.6533 236.327 51.5733 236.874 51.52C237.434 51.4533 237.994 51.42 238.554 51.42C238.794 51.42 239.054 51.4267 239.334 51.44C239.614 51.4533 239.894 51.48 240.174 51.52V53.8H239.994C239.794 53.7467 239.567 53.7133 239.314 53.7C239.06 53.6733 238.814 53.66 238.574 53.66C238.147 53.66 237.727 53.6933 237.314 53.76C236.9 53.8267 236.547 53.9067 236.254 54L236.674 53.36C236.847 53.72 236.934 54.34 236.934 55.22V62.5H234.134ZM246.323 62.74C244.657 62.74 243.397 62.4667 242.543 61.92C241.703 61.3733 241.283 60.4867 241.283 59.26C241.283 58.4733 241.477 57.8267 241.863 57.32C242.263 56.8133 242.817 56.44 243.523 56.2C244.243 55.9467 245.07 55.82 246.003 55.82C246.577 55.82 247.077 55.8667 247.503 55.96C247.93 56.04 248.317 56.1267 248.663 56.22V58.02C248.397 57.9267 248.057 57.8467 247.643 57.78C247.23 57.7 246.83 57.66 246.443 57.66C245.577 57.66 244.93 57.78 244.503 58.02C244.09 58.26 243.883 58.6667 243.883 59.24C243.883 59.7867 244.09 60.18 244.503 60.42C244.917 60.66 245.51 60.78 246.283 60.78C246.75 60.78 247.197 60.74 247.623 60.66C248.063 60.5667 248.45 60.4267 248.783 60.24L248.383 61.02C248.33 60.86 248.283 60.7 248.243 60.54C248.203 60.38 248.17 60.2133 248.143 60.04C248.13 59.8667 248.117 59.6733 248.103 59.46C248.103 59.2333 248.103 58.96 248.103 58.64V55.9C248.103 55.22 247.997 54.7067 247.783 54.36C247.57 54.0133 247.257 53.7867 246.843 53.68C246.43 53.56 245.917 53.5 245.303 53.5C244.743 53.5 244.203 53.56 243.683 53.68C243.163 53.7867 242.743 53.9133 242.423 54.06H242.223V51.84C242.703 51.6667 243.243 51.54 243.843 51.46C244.443 51.3667 245.043 51.32 245.643 51.32C246.39 51.32 247.077 51.3867 247.703 51.52C248.343 51.6533 248.897 51.8867 249.363 52.22C249.83 52.5533 250.19 53.0267 250.443 53.64C250.71 54.24 250.843 55.02 250.843 55.98V58.5C250.843 58.78 250.843 59.1333 250.843 59.56C250.857 59.9733 250.877 60.38 250.903 60.78C250.93 61.18 250.97 61.5 251.023 61.74L250.963 61.9C250.51 62.0733 250.017 62.2267 249.483 62.36C248.963 62.48 248.43 62.5733 247.883 62.64C247.337 62.7067 246.817 62.74 246.323 62.74ZM254.055 62.5V50.68C254.055 50.4133 254.049 50.0733 254.035 49.66C254.022 49.2333 254.002 48.82 253.975 48.42C253.962 48.02 253.922 47.7 253.855 47.46L253.915 47.3H256.855V52.9L256.255 51.98C256.669 51.7933 257.115 51.64 257.595 51.52C258.089 51.3867 258.655 51.32 259.295 51.32C259.949 51.32 260.555 51.4067 261.115 51.58C261.689 51.74 262.182 52.0133 262.595 52.4C263.022 52.7733 263.355 53.2733 263.595 53.9C263.835 54.5133 263.955 55.28 263.955 56.2V62.5H261.155V56.34C261.155 55.6333 261.049 55.0867 260.835 54.7C260.622 54.3 260.322 54.0267 259.935 53.88C259.562 53.72 259.122 53.64 258.615 53.64C258.335 53.64 258.042 53.6667 257.735 53.72C257.442 53.7733 257.162 53.8333 256.895 53.9C256.642 53.9667 256.442 54.0267 256.295 54.08L256.855 52.82V62.5H254.055Z" fill="#1DA599"/>
</g>
<defs>
<filter id="filter0_d_26_735" x="0" y="0" width="302" height="87" filterUnits="userSpaceOnUse" color-interpolation-filters="sRGB">
<feFlood flood-opacity="0" result="BackgroundImageFix"/>
<feColorMatrix in="SourceAlpha" type="matrix" values="0 0 0 0 0 0 0 0 0 0 0 0 0 0 0 0 0 0 127 0" result="hardAlpha"/>
<feOffset dy="4"/>
<feGaussianBlur stdDeviation="2"/>
<feComposite in2="hardAlpha" operator="out"/>
<feColorMatrix type="matrix" values="0 0 0 0 0 0 0 0 0 0 0 0 0 0 0 0 0 0 0.1 0"/>
<feBlend mode="normal" in2="BackgroundImageFix" result="effect1_dropShadow_26_735"/>
<feBlend mode="normal" in="SourceGraphic" in2="effect1_dropShadow_26_735" result="shape"/>
</filter>
</defs>
</svg>
